<svg xmlns="http://www.w3.org/2000/svg" width="34.856" height="29.825" viewBox="0 0 34.856 29.825">
  <g id="Grupo_108434" data-name="Grupo 108434" transform="translate(11033.756 12016.259)">
    <path id="Trazado_99257" data-name="Trazado 99257" d="M416.049,103.656a.918.918,0,1,1-.918-.877A.9.9,0,0,1,416.049,103.656Z" transform="translate(-11447.97 -12119.038)" fill="#fff"/>
    <path id="Trazado_99258" data-name="Trazado 99258" d="M424.495,103.656a.918.918,0,1,1-.917-.877A.9.9,0,0,1,424.495,103.656Z" transform="translate(-11448.161 -12119.038)" fill="#fff"/>
    <path id="Trazado_99259" data-name="Trazado 99259" d="M432.941,103.656a.918.918,0,1,1-.917-.877A.9.9,0,0,1,432.941,103.656Z" transform="translate(-11448.352 -12119.038)" fill="#fff"/>
    <path id="Trazado_99260" data-name="Trazado 99260" d="M441.388,103.656a.918.918,0,1,1-.918-.877A.9.9,0,0,1,441.388,103.656Z" transform="translate(-11448.543 -12119.038)" fill="#fff"/>
    <path id="Trazado_99261" data-name="Trazado 99261" d="M449.834,103.656a.918.918,0,1,1-.917-.877A.9.9,0,0,1,449.834,103.656Z" transform="translate(-11448.733 -12119.038)" fill="#fff"/>
    <ellipse id="Elipse_3975" data-name="Elipse 3975" cx="0.917" cy="0.877" rx="0.917" ry="0.877" transform="translate(-11033.756 -12009.241)" fill="#fff"/>
    <path id="Trazado_99268" data-name="Trazado 99268" d="M424.495,111.164a.918.918,0,1,1-.917-.877A.9.9,0,0,1,424.495,111.164Z" transform="translate(-11448.161 -12119.528)" fill="#fff"/>
    <ellipse id="Elipse_3976" data-name="Elipse 3976" cx="0.917" cy="0.877" rx="0.917" ry="0.877" transform="translate(-11017.245 -12009.241)" fill="#fff"/>
    <path id="Trazado_99269" data-name="Trazado 99269" d="M441.388,111.164a.918.918,0,1,1-.918-.877A.9.9,0,0,1,441.388,111.164Z" transform="translate(-11448.543 -12119.528)" fill="#fff"/>
    <path id="Trazado_99270" data-name="Trazado 99270" d="M449.834,111.164a.918.918,0,1,1-.917-.877A.9.9,0,0,1,449.834,111.164Z" transform="translate(-11448.733 -12119.528)" fill="#fff"/>
    <path id="Trazado_99274" data-name="Trazado 99274" d="M416.049,118.672a.918.918,0,1,1-.918-.878A.9.9,0,0,1,416.049,118.672Z" transform="translate(-11447.97 -12120.019)" fill="#fff"/>
    <path id="Trazado_99275" data-name="Trazado 99275" d="M424.495,118.672a.918.918,0,1,1-.917-.878A.9.9,0,0,1,424.495,118.672Z" transform="translate(-11448.161 -12120.019)" fill="#fff"/>
    <path id="Trazado_99276" data-name="Trazado 99276" d="M432.941,118.672a.918.918,0,1,1-.917-.878A.9.9,0,0,1,432.941,118.672Z" transform="translate(-11448.352 -12120.019)" fill="#fff"/>
    <path id="Trazado_99277" data-name="Trazado 99277" d="M441.388,118.672a.918.918,0,1,1-.918-.878A.9.9,0,0,1,441.388,118.672Z" transform="translate(-11448.543 -12120.019)" fill="#fff"/>
    <path id="Trazado_99278" data-name="Trazado 99278" d="M449.834,118.672a.918.918,0,1,1-.917-.878A.9.9,0,0,1,449.834,118.672Z" transform="translate(-11448.733 -12120.019)" fill="#fff"/>
    <ellipse id="Elipse_3980" data-name="Elipse 3980" cx="0.917" cy="0.877" rx="0.917" ry="0.877" transform="translate(-11033.756 -11995.206)" fill="#fff"/>
    <path id="Trazado_99285" data-name="Trazado 99285" d="M424.495,126.18a.918.918,0,1,1-.917-.878A.9.9,0,0,1,424.495,126.18Z" transform="translate(-11448.161 -12120.509)" fill="#fff"/>
    <ellipse id="Elipse_3981" data-name="Elipse 3981" cx="0.917" cy="0.877" rx="0.917" ry="0.877" transform="translate(-11017.245 -11995.206)" fill="#fff"/>
    <path id="Trazado_99286" data-name="Trazado 99286" d="M441.388,126.18a.918.918,0,1,1-.918-.878A.9.9,0,0,1,441.388,126.18Z" transform="translate(-11448.543 -12120.509)" fill="#fff"/>
    <path id="Trazado_99287" data-name="Trazado 99287" d="M449.834,126.18a.918.918,0,1,1-.917-.878A.9.9,0,0,1,449.834,126.18Z" transform="translate(-11448.733 -12120.509)" fill="#fff"/>
    <ellipse id="Elipse_3985" data-name="Elipse 3985" cx="0.917" cy="0.877" rx="0.917" ry="0.877" transform="translate(-11033.756 -11988.189)" fill="#fff"/>
    <path id="Trazado_99291" data-name="Trazado 99291" d="M424.495,133.688a.918.918,0,1,1-.917-.878A.9.9,0,0,1,424.495,133.688Z" transform="translate(-11448.161 -12120.999)" fill="#fff"/>
    <ellipse id="Elipse_3986" data-name="Elipse 3986" cx="0.917" cy="0.877" rx="0.917" ry="0.877" transform="translate(-11017.245 -11988.189)" fill="#fff"/>
    <path id="Trazado_99292" data-name="Trazado 99292" d="M441.388,133.688a.918.918,0,1,1-.918-.878A.9.9,0,0,1,441.388,133.688Z" transform="translate(-11448.543 -12120.999)" fill="#fff"/>
    <path id="Trazado_99293" data-name="Trazado 99293" d="M449.834,133.688a.918.918,0,1,1-.917-.878A.9.9,0,0,1,449.834,133.688Z" transform="translate(-11448.733 -12120.999)" fill="#fff"/>
  </g>
</svg>
